<svg width="512" height="512" viewBox="0 0 512 512" fill="none" xmlns="http://www.w3.org/2000/svg">
  <rect width="512" height="512" rx="112" fill="#F4F4F4" />
  <path
    d="M256 54C267.7 54 279.2 57.1 289.3 63L432.3 146.3C452.9 158.3 465.5 180.3 465.5 204.1V307.9C465.5 331.7 452.9 353.7 432.3 365.7L289.3 449C268.7 461 243.3 461 222.7 449L79.7 365.7C59.1 353.7 46.5 331.7 46.5 307.9V204.1C46.5 180.3 59.1 158.3 79.7 146.3L222.7 63C232.8 57.1 244.3 54 256 54Z"
    fill="url(#cellGradient)"
  />
  <path
    d="M256 88C261.7 88 267.3 89.5 272.2 92.3L404.9 169.6C414.9 175.4 421 186.1 421 197.6V314.4C421 325.9 414.9 336.6 404.9 342.4L272.2 419.7C262.2 425.5 249.8 425.5 239.8 419.7L107.1 342.4C97.1 336.6 91 325.9 91 314.4V197.6C91 186.1 97.1 175.4 107.1 169.6L239.8 92.3C244.7 89.5 250.3 88 256 88Z"
    fill="#F9F9F9"
    fill-opacity="0.96"
  />
  <path
    d="M256 136C259.1 136 262.1 136.8 264.8 138.4L360.5 194.1C366 197.3 369.3 203.1 369.3 209.4V302.6C369.3 308.9 366 314.7 360.5 317.9L264.8 373.6C259.4 376.7 252.6 376.7 247.2 373.6L151.5 317.9C146 314.7 142.7 308.9 142.7 302.6V209.4C142.7 203.1 146 197.3 151.5 194.1L247.2 138.4C249.9 136.8 252.9 136 256 136Z"
    fill="#E85002"
  />
  <defs>
    <linearGradient id="cellGradient" x1="64" y1="96" x2="448" y2="416" gradientUnits="userSpaceOnUse">
      <stop stop-color="#FFB24F" />
      <stop offset="0.45" stop-color="#E85002" />
      <stop offset="1" stop-color="#FF210F" />
    </linearGradient>
  </defs>
</svg>
